<svg xmlns="http://www.w3.org/2000/svg" version="1.1" xmlns:xlink="http://www.w3.org/1999/xlink" xmlns:svgjs="http://svgjs.dev/svgjs" width="100%" height="100%" viewBox="0 0 1000 600"><rect width="1000" height="600" x="0" y="0" fill="#ffffff"/><g><circle r="166.66666666666666" cx="500.53580729166663" cy="522.7579373549037" fill="#8aaae5" transform="matrix(0.37439834383566395,0,0,0.37439834383566395,0,104.28030741859824)"/><path d="M458.23523787585384 447.7579772234853L458.23523787585384 462.87293626177876Q440.2675964275162 460.0202538517346 428.3885159438997 460.0202538517346L428.3885159438997 460.0202538517346L416.1262393156503 460.0202538517346Q415.317269676981 464.4908755391172 415.317269676981 468.578301081867L415.317269676981 468.578301081867L415.317269676981 567.9112572405675Q415.317269676981 583.8777632669339 418.1699520870252 597.7579791725216L418.1699520870252 597.7579791725216L392.027459553188 597.7579791725216Q394.8801419632322 583.8777632669339 394.8801419632322 567.9112572405675L394.8801419632322 567.9112572405675L394.8801419632322 468.578301081867Q394.8801419632322 464.4908755391172 394.0711723245629 460.0202538517346L394.0711723245629 460.0202538517346L381.8088956963136 460.0202538517346Q369.929815212697 460.0202538517346 351.9621737643594 462.87293626177876L351.9621737643594 462.87293626177876L351.9621737643594 447.7579772234853L458.23523787585384 447.7579772234853ZM545.6891135509377 513.1567859074819L545.6891135509377 531.5502008498559Q533.0436407780555 528.6975184398118 515.8849689683873 528.6975184398118L515.8849689683873 528.6975184398118L499.9184629420209 528.6975184398118L499.9184629420209 567.9112572405675Q499.9184629420209 583.8777632669339 503.1969188461014 597.7579791725216L503.1969188461014 597.7579791725216L477.4376224568971 597.7579791725216Q479.9071087223084 583.026216278861 479.9071087223084 567.9112572405675L479.9071087223084 567.9112572405675L479.9071087223084 477.17892566140296Q479.9071087223084 462.0639666231095 477.4376224568971 447.7579772234853L477.4376224568971 447.7579772234853L545.6891135509377 447.7579772234853L545.6891135509377 462.87293626177876Q528.5304417412694 460.0202538517346 515.8849689683873 460.0202538517346L515.8849689683873 460.0202538517346L501.15320607472654 460.0202538517346Q500.7274325806901 464.4908755391172 500.3442364360573 469.0040745759034Q499.9184629420209 473.5172736126896 499.9184629420209 477.17892566140296L499.9184629420209 477.17892566140296L499.9184629420209 516.4352418115624L515.8849689683873 516.4352418115624Q526.1035328252617 516.4352418115624 545.6891135509377 513.1567859074819L545.6891135509377 513.1567859074819ZM649.1094952523881 513.1567859074819L649.1094952523881 531.5502008498559Q636.464022479506 528.6975184398118 619.2627733204338 528.6975184398118L619.2627733204338 528.6975184398118L603.3388446434712 528.6975184398118L603.3388446434712 567.9112572405675Q603.3388446434712 583.8777632669339 606.6173005475516 597.7579791725216L606.6173005475516 597.7579791725216L580.8580041583474 597.7579791725216Q583.3274904237587 583.026216278861 583.3274904237587 567.9112572405675L583.3274904237587 567.9112572405675L583.3274904237587 477.17892566140296Q583.3274904237587 462.0639666231095 580.8580041583474 447.7579772234853L580.8580041583474 447.7579772234853L649.1094952523881 447.7579772234853L649.1094952523881 462.87293626177876Q631.9508234427196 460.0202538517346 619.2627733204338 460.0202538517346L619.2627733204338 460.0202538517346L604.5735877761769 460.0202538517346Q604.1478142821404 464.4908755391172 603.7646181375076 469.0040745759034Q603.3388446434712 473.5172736126896 603.3388446434712 477.17892566140296L603.3388446434712 477.17892566140296L603.3388446434712 516.4352418115624L619.2627733204338 516.4352418115624Q629.4813371773084 516.4352418115624 649.1094952523881 513.1567859074819L649.1094952523881 513.1567859074819Z " fill="#ffffff" transform="matrix(0.37439834383566395,0,0,0.37439834383566395,0,104.28030741859824)"/><path d="M832.300403711936 449.33037186156577L832.300403711936 460.9595483051816Q818.4764249536095 458.764745990471 809.3368750162325 458.764745990471L809.3368750162325 458.764745990471L799.9025008873273 458.764745990471Q799.2800942607676 462.20436155830106 799.2800942607676 465.34915293460284L799.2800942607676 465.34915293460284L799.2800942607676 541.7741350274362Q799.2800942607676 554.0584763411149 801.4748965754782 564.7376637231396L801.4748965754782 564.7376637231396L781.3613350645481 564.7376637231396Q783.5561373792586 554.0584763411149 783.5561373792586 541.7741350274362L783.5561373792586 541.7741350274362L783.5561373792586 465.34915293460284Q783.5561373792586 462.20436155830106 782.9337307526989 458.764745990471L782.9337307526989 458.764745990471L773.4993566237938 458.764745990471Q764.3598066864167 458.764745990471 750.5358279280903 460.9595483051816L750.5358279280903 460.9595483051816L750.5358279280903 449.33037186156577L832.300403711936 449.33037186156577ZM866.8931088512553 564.7376637231396L847.0743715318536 564.7376637231396Q848.9743496550359 553.4033114710521 848.9743496550359 541.7741350274362L848.9743496550359 541.7741350274362L848.9743496550359 474.4887028719798Q848.9743496550359 463.4819330549237 847.0743715318536 451.5251741762763L847.0743715318536 451.5251741762763L866.8931088512553 447.7579761734149Q864.3707241015132 458.1423393639113 864.3707241015132 470.7215048691183L864.3707241015132 470.7215048691183L864.3707241015132 489.88507731845715Q873.1826916038589 479.20588993643247 889.692846329443 479.20588993643247Q906.2030010550272 479.20588993643247 915.964957618964 491.16264881507976L915.964957618964 491.16264881507976Q923.1717711896555 499.94185807392216 923.1717711896555 514.748584137343L923.1717711896555 514.748584137343L923.1717711896555 541.7741350274362Q923.1717711896555 554.0584763411149 925.3993317478693 564.7376637231396L925.3993317478693 564.7376637231396L905.5805944284675 564.7376637231396Q907.7753967431781 553.4033114710521 907.7753967431781 541.7741350274362L907.7753967431781 541.7741350274362L907.7753967431781 514.748584137343Q907.7753967431781 503.08664945022394 904.3030229318449 498.36946238577127L904.3030229318449 498.36946238577127Q898.6686050493043 488.6402640653377 886.0894395440973 488.6402640653377L886.0894395440973 488.6402640653377Q873.5102740388902 488.6402640653377 867.8430979128465 498.36946238577127L867.8430979128465 498.36946238577127Q864.3707241015132 503.08664945022394 864.3707241015132 514.748584137343L864.3707241015132 514.748584137343L864.3707241015132 541.7741350274362Q864.3707241015132 554.0584763411149 866.8931088512553 564.7376637231396L866.8931088512553 564.7376637231396ZM1019.4154906018905 537.6793545895432L1020.3654796634817 537.6793545895432L1020.3654796634817 552.4860806529641Q1008.7363032198659 566.3100594112905 988.5899834654327 566.3100594112905Q968.4764219545027 566.3100594112905 957.3058609199309 552.7809048444924Q946.135299885359 539.2517502776941 946.135299885359 522.7415955521099Q946.135299885359 506.23144082652567 956.8472455108869 492.73504450323065L956.8472455108869 492.73504450323065Q968.1488395194713 479.20588993643247 987.3451702123132 479.20588993643247Q1006.5087426616521 479.20588993643247 1017.8430949137396 494.3074401913815L1017.8430949137396 494.3074401913815Q1025.0826667279343 505.31421000843767 1025.0826667279343 522.6105625780974L1025.0826667279343 522.6105625780974L1024.755084292903 527.32774964255L962.8092458284589 527.32774964255Q963.75923489005 540.824145965845 969.7212352076222 547.44131115348L969.7212352076222 547.44131115348Q976.9608070218169 556.5481028473538 990.4899615886151 556.5481028473538L990.4899615886151 556.5481028473538Q1008.7363032198659 556.5481028473538 1019.4154906018905 537.6793545895432L1019.4154906018905 537.6793545895432ZM962.8092458284589 517.8933755136447L1009.3587098464255 517.8933755136447Q1009.3587098464255 504.6590451383748 1004.3139403469415 498.074638194243L1004.3139403469415 498.074638194243Q997.0743685327468 488.6402640653377 986.5589723682378 488.6402640653377Q976.0108179602257 488.6402640653377 969.7212352076222 498.074638194243L969.7212352076222 498.074638194243Q963.75923489005 504.9866275734062 962.8092458284589 517.8933755136447L962.8092458284589 517.8933755136447ZM1159.9811134738784 499.6470338823939L1159.9811134738784 513.7985950757518Q1150.251915153445 511.6037927610412 1137.017584778175 511.6037927610412L1137.017584778175 511.6037927610412L1124.7660017079995 511.6037927610412L1124.7660017079995 541.7741350274362Q1124.7660017079995 554.0584763411149 1127.2883864577416 564.7376637231396L1127.2883864577416 564.7376637231396L1107.4696491383397 564.7376637231396Q1109.369627261522 553.4033114710521 1109.369627261522 541.7741350274362L1109.369627261522 541.7741350274362L1109.369627261522 471.96631812223774Q1109.369627261522 460.3371416786219 1107.4696491383397 449.33037186156577L1107.4696491383397 449.33037186156577L1159.9811134738784 449.33037186156577L1159.9811134738784 460.9595483051816Q1146.7795413421118 458.764745990471 1137.017584778175 458.764745990471L1137.017584778175 458.764745990471L1125.7159907695907 458.764745990471Q1125.3884083345592 462.20436155830106 1125.093584143031 465.6767353696343Q1124.7660017079995 469.14910918096746 1124.7660017079995 471.96631812223774L1124.7660017079995 471.96631812223774L1124.7660017079995 502.1694186321359L1137.017584778175 502.1694186321359Q1144.8795632189294 502.1694186321359 1159.9811134738784 499.6470338823939L1159.9811134738784 499.6470338823939ZM1206.8581599268766 564.7376637231396L1187.039422607475 564.7376637231396Q1188.9066424871542 553.4033114710521 1188.9066424871542 541.7741350274362L1188.9066424871542 541.7741350274362L1188.9066424871542 474.4887028719798Q1188.9066424871542 463.4819330549237 1187.039422607475 451.5251741762763L1187.039422607475 451.5251741762763L1206.8581599268766 447.7579761734149Q1204.3357751771346 458.1423393639113 1204.3357751771346 470.7215048691183L1204.3357751771346 470.7215048691183L1204.3357751771346 541.7741350274362Q1204.3357751771346 554.0584763411149 1206.8581599268766 564.7376637231396L1206.8581599268766 564.7376637231396ZM1308.1138905950925 502.1694186321359L1308.1138905950925 541.7741350274362Q1308.1138905950925 551.536091591373 1310.308692909803 564.7376637231396L1310.308692909803 564.7376637231396L1290.4899555904015 564.7376637231396Q1291.1123622169612 562.8376855999572 1291.276153434477 560.6428832852467Q1291.4399446519926 558.4480809705361 1291.767527087024 556.2532786558255L1291.767527087024 556.2532786558255Q1282.9555595846787 566.3100594112905 1268.4764159562892 566.3100594112905L1268.4764159562892 566.3100594112905Q1249.9352501335102 566.3100594112905 1238.764689098938 552.7809048444924Q1227.5941280643665 539.2517502776941 1227.5941280643665 522.7415955521099Q1227.5941280643665 506.23144082652567 1238.3060736898942 492.73504450323065L1238.3060736898942 492.73504450323065Q1249.6076676984787 479.20588993643247 1266.9040202681383 479.20588993643247Q1284.2003728377979 479.20588993643247 1291.4399446519926 488.6402640653377L1291.4399446519926 488.6402640653377Q1291.4399446519926 485.79029688056426 1290.4899555904015 482.9730879392939L1290.4899555904015 482.9730879392939L1310.308692909803 479.20588993643247Q1308.1138905950925 492.4074620681992 1308.1138905950925 502.1694186321359L1308.1138905950925 502.1694186321359ZM1286.1003509609804 498.074638194243L1286.1003509609804 498.074638194243Q1279.188361581817 488.6402640653377 1268.3126247387736 488.6402640653377Q1257.469646139233 488.6402640653377 1251.1800633866296 498.074638194243L1251.1800633866296 498.074638194243Q1244.268074007466 506.23144082652567 1244.268074007466 522.6105625780974L1244.268074007466 522.6105625780974Q1244.268074007466 538.9569260861658 1251.1800633866296 547.44131115348L1251.1800633866296 547.44131115348Q1257.469646139233 556.5481028473538 1268.3126247387736 556.5481028473538Q1279.188361581817 556.5481028473538 1285.9365597434644 547.7688935885114Q1292.6847579051118 538.9569260861658 1292.6847579051118 522.6105625780974L1292.6847579051118 522.6105625780974Q1292.6847579051118 506.23144082652567 1286.1003509609804 498.074638194243ZM1376.6768942471715 564.7376637231396L1362.820157245342 564.7376637231396Q1358.725376807449 549.9636959032221 1355.285761239619 542.7241240890273L1355.285761239619 542.7241240890273L1335.1394414851857 500.2694405089536Q1332.9446391704753 494.3074401913815 1323.51026504157 480.4507031895519L1323.51026504157 480.4507031895519L1345.228980484154 480.4507031895519Q1348.3737718604557 492.4074620681992 1352.763376489877 502.46424282366416L1352.763376489877 502.46424282366416L1372.2545313742473 544.9189264037379L1391.7456862586175 502.46424282366416Q1396.4628733230702 492.4074620681992 1399.3128405078435 480.4507031895519L1399.3128405078435 480.4507031895519L1416.6091930775033 480.4507031895519Q1412.8419950746418 485.16789025400453 1410.1558191073839 490.2126597534886Q1407.4696431401264 495.22467100946955 1404.6524341988559 500.2694405089536L1404.6524341988559 500.2694405089536L1384.5388726879262 542.7241240890273Q1380.444092250033 551.536091591373 1376.6768942471715 564.7376637231396L1376.6768942471715 564.7376637231396ZM1482.9446361713683 498.074638194243L1482.9446361713683 498.074638194243Q1476.0326467922052 488.6402640653377 1465.1896681926648 488.6402640653377Q1454.3466895931244 488.6402640653377 1448.0571068405209 498.074638194243L1448.0571068405209 498.074638194243Q1441.1451174613576 506.23144082652567 1441.1451174613576 522.6105625780974L1441.1451174613576 522.6105625780974Q1441.1451174613576 538.9569260861658 1448.0571068405209 547.44131115348L1448.0571068405209 547.44131115348Q1454.3466895931244 556.5481028473538 1465.1896681926648 556.5481028473538Q1476.0326467922052 556.5481028473538 1482.8136031973559 547.7688935885114Q1489.5618013590035 538.9569260861658 1489.5618013590035 522.6105625780974L1489.5618013590035 522.6105625780974Q1489.5618013590035 506.23144082652567 1482.9446361713683 498.074638194243ZM1495.5238016765754 552.4860806529641L1495.5238016765754 552.4860806529641Q1484.222207667991 566.3100594112905 1465.5172506276963 566.3100594112905Q1446.7795353438983 566.3100594112905 1435.6417325528296 552.7809048444924Q1424.4711715182577 539.2517502776941 1424.4711715182577 522.7415955521099Q1424.4711715182577 506.23144082652567 1435.1503589002825 492.73504450323065L1435.1503589002825 492.73504450323065Q1446.48471115237 479.20588993643247 1465.3534594101804 479.20588993643247L1465.3534594101804 479.20588993643247Q1484.222207667991 479.20588993643247 1495.392768702563 492.57125328571493Q1506.5305714936317 505.9366166349974 1506.5305714936317 523.0691779871413Q1506.5305714936317 540.2017393392853 1495.5238016765754 552.4860806529641ZM1603.724279967458 502.1694186321359L1603.724279967458 541.7741350274362Q1603.724279967458 555.3032895942343 1605.9190822821686 564.7376637231396L1605.9190822821686 564.7376637231396L1586.1003449627667 564.7376637231396Q1586.4279273977984 562.8376855999572 1586.5917186153138 560.6428832852467Q1586.7227515893267 558.4480809705361 1587.3779164593893 556.2532786558255L1587.3779164593893 556.2532786558255Q1578.860773148572 566.3100594112905 1562.5144096405036 566.3100594112905Q1546.1680461324352 566.3100594112905 1536.7336720035298 554.0584763411149L1536.7336720035298 554.0584763411149Q1529.494100189335 544.9189264037379 1529.494100189335 530.4725410188516L1529.494100189335 530.4725410188516L1529.494100189335 505.9366166349974Q1529.494100189335 494.6022643829098 1527.626880309656 482.9730879392939L1527.626880309656 482.9730879392939L1547.4128593855546 479.20588993643247Q1544.9232328793157 489.59025312692887 1544.9232328793157 502.1694186321359L1544.9232328793157 502.1694186321359L1544.9232328793157 530.4725410188516Q1544.9232328793157 541.7741350274362 1548.3628484471458 547.1137287184486L1548.3628484471458 547.1137287184486Q1554.357607008221 556.5481028473538 1566.6091900783965 556.5481028473538L1566.6091900783965 556.5481028473538Q1588.2951472774773 556.5481028473538 1588.2951472774773 530.4725410188516L1588.2951472774773 530.4725410188516L1588.2951472774773 505.9366166349974Q1588.2951472774773 494.6022643829098 1586.1003449627667 482.9730879392939L1586.1003449627667 482.9730879392939L1605.9190822821686 479.20588993643247Q1603.724279967458 489.59025312692887 1603.724279967458 502.1694186321359L1603.724279967458 502.1694186321359ZM1651.8461396735754 564.7376637231396L1632.0274023541735 564.7376637231396Q1633.894622233853 553.4033114710521 1633.894622233853 541.7741350274362L1633.894622233853 541.7741350274362L1633.894622233853 505.9366166349974Q1633.894622233853 494.6022643829098 1632.0274023541735 482.9730879392939L1632.0274023541735 482.9730879392939L1651.8461396735754 479.20588993643247Q1650.8961506119842 482.3506813127342 1650.2737439854245 489.2626706918974L1650.2737439854245 489.2626706918974Q1658.4305466177073 479.20588993643247 1670.7148879313859 479.20588993643247L1670.7148879313859 479.20588993643247Q1677.6268773105492 479.20588993643247 1683.9164600631527 482.3506813127342L1683.9164600631527 482.3506813127342L1683.9164600631527 499.6470338823939L1683.294053436593 499.6470338823939Q1677.0044706839894 488.6402640653377 1667.7011295290965 488.6402640653377Q1658.4305466177073 488.6402640653377 1652.7633704916632 498.36946238577127L1652.7633704916632 498.36946238577127Q1649.3237549238333 503.08664945022394 1649.3237549238333 514.748584137343L1649.3237549238333 514.748584137343L1649.3237549238333 541.7741350274362Q1649.3237549238333 554.0584763411149 1651.8461396735754 564.7376637231396L1651.8461396735754 564.7376637231396ZM1812.5253240564932 499.6470338823939L1812.5253240564932 513.7985950757518Q1802.7961257360596 511.6037927610412 1789.56179536079 511.6037927610412L1789.56179536079 511.6037927610412L1777.3102122906141 511.6037927610412L1777.3102122906141 541.7741350274362Q1777.3102122906141 554.0584763411149 1779.8325970403564 564.7376637231396L1779.8325970403564 564.7376637231396L1760.0138597209545 564.7376637231396Q1761.9138378441369 553.4033114710521 1761.9138378441369 541.7741350274362L1761.9138378441369 541.7741350274362L1761.9138378441369 471.96631812223774Q1761.9138378441369 460.3371416786219 1760.0138597209545 449.33037186156577L1760.0138597209545 449.33037186156577L1812.5253240564932 449.33037186156577L1812.5253240564932 460.9595483051816Q1799.3237519247266 458.764745990471 1789.56179536079 458.764745990471L1789.56179536079 458.764745990471L1778.2602013522053 458.764745990471Q1777.932618917174 462.20436155830106 1777.6377947256458 465.6767353696343Q1777.3102122906141 469.14910918096746 1777.3102122906141 471.96631812223774L1777.3102122906141 471.96631812223774L1777.3102122906141 502.1694186321359L1789.56179536079 502.1694186321359Q1797.4237738015443 502.1694186321359 1812.5253240564932 499.6470338823939L1812.5253240564932 499.6470338823939ZM1914.7310437863005 502.1694186321359L1914.7310437863005 541.7741350274362Q1914.7310437863005 551.536091591373 1916.925846101011 564.7376637231396L1916.925846101011 564.7376637231396L1897.1398670251126 564.7376637231396Q1897.762273651672 562.8376855999572 1897.9260648691877 560.6428832852467Q1898.0570978432004 558.4480809705361 1898.384680278232 556.2532786558255L1898.384680278232 556.2532786558255Q1889.5727127758862 566.3100594112905 1875.1263273910001 566.3100594112905L1875.1263273910001 566.3100594112905Q1856.5524033247182 566.3100594112905 1845.381842290146 552.7809048444924Q1834.2440394990774 539.2517502776941 1834.2440394990774 522.7415955521099Q1834.2440394990774 506.23144082652567 1844.9232268811022 492.73504450323065L1844.9232268811022 492.73504450323065Q1856.2575791331894 479.20588993643247 1873.5539317028495 479.20588993643247Q1890.850284272509 479.20588993643247 1898.0570978432004 488.6402640653377L1898.0570978432004 488.6402640653377Q1898.0570978432004 485.79029688056426 1897.1398670251126 482.9730879392939L1897.1398670251126 482.9730879392939L1916.925846101011 479.20588993643247Q1914.7310437863005 492.4074620681992 1914.7310437863005 502.1694186321359L1914.7310437863005 502.1694186321359ZM1892.717504152188 498.074638194243L1892.717504152188 498.074638194243Q1885.805514773025 488.6402640653377 1874.9625361734845 488.6402640653377Q1864.1195575739441 488.6402640653377 1857.8299748213406 498.074638194243L1857.8299748213406 498.074638194243Q1850.885227198674 506.23144082652567 1850.885227198674 522.6105625780974L1850.885227198674 522.6105625780974Q1850.885227198674 538.9569260861658 1857.8299748213406 547.44131115348L1857.8299748213406 547.44131115348Q1864.1195575739441 556.5481028473538 1874.9625361734845 556.5481028473538Q1885.805514773025 556.5481028473538 1892.5537129346724 547.7688935885114Q1899.3346693398232 538.9569260861658 1899.3346693398232 522.6105625780974L1899.3346693398232 522.6105625780974Q1899.3346693398232 506.23144082652567 1892.717504152188 498.074638194243ZM2008.4523784487935 537.6793545895432L2009.0747850753535 537.6793545895432L2009.0747850753535 552.4860806529641Q1997.7731910667692 566.3100594112905 1979.0354757829707 566.3100594112905Q1960.330518742676 566.3100594112905 1949.159957708104 553.1084872795238Q1938.0221549170353 539.906915147757 1938.0221549170353 523.0691779871413Q1938.0221549170353 506.23144082652567 1948.7013422990601 492.73504450323065L1948.7013422990601 492.73504450323065Q1960.0356945511478 479.20588993643247 1978.904442808958 479.20588993643247L1978.904442808958 479.20588993643247Q1993.6784106288762 479.20588993643247 2004.3575980109006 488.017857438778L2004.3575980109006 488.017857438778L2004.3575980109006 508.45900138473945L2003.735191384341 508.45900138473945Q2001.2128066345988 502.46424282366416 1997.1180261967058 498.074638194243L1997.1180261967058 498.074638194243Q1989.9112126260145 488.6402640653377 1979.1992670004868 488.6402640653377Q1968.520079618462 488.6402640653377 1961.6080902392985 498.074638194243L1961.6080902392985 498.074638194243Q1954.663342616632 506.23144082652567 1954.663342616632 522.6105625780974L1954.663342616632 522.6105625780974Q1954.663342616632 538.9569260861658 1961.6080902392985 547.44131115348L1961.6080902392985 547.44131115348Q1967.897672991902 556.5481028473538 1978.904442808958 556.5481028473538L1978.904442808958 556.5481028473538Q1997.4456086317375 556.5481028473538 2008.4523784487935 537.6793545895432L2008.4523784487935 537.6793545895432ZM2057.5242272165024 470.7215048691183L2057.5242272165024 484.5454836274448Q2066.631018910376 484.5454836274448 2079.8325910421427 482.3506813127342L2079.8325910421427 482.3506813127342L2079.8325910421427 496.5022425060921Q2069.153403660118 493.9798577563501 2057.5242272165024 493.9798577563501L2057.5242272165024 493.9798577563501L2057.5242272165024 541.7741350274362Q2057.5242272165024 554.0584763411149 2060.0138537227413 564.7376637231396L2060.0138537227413 564.7376637231396L2040.2278746468426 564.7376637231396Q2042.095094526522 553.4033114710521 2042.095094526522 541.7741350274362L2042.095094526522 541.7741350274362L2042.095094526522 493.9798577563501Q2030.7935005179372 493.9798577563501 2020.081554892409 496.5022425060921L2020.081554892409 496.5022425060921L2020.081554892409 482.3506813127342Q2033.938291894239 484.5454836274448 2042.095094526522 484.5454836274448L2042.095094526522 484.5454836274448L2042.095094526522 474.4887028719798Q2042.095094526522 463.4819330549237 2040.2278746468426 451.5251741762763L2040.2278746468426 451.5251741762763L2060.0138537227413 447.7579761734149Q2057.5242272165024 458.1423393639113 2057.5242272165024 470.7215048691183L2057.5242272165024 470.7215048691183ZM2147.4456056326308 498.074638194243L2147.4456056326308 498.074638194243Q2140.5336162534677 488.6402640653377 2129.6906376539264 488.6402640653377Q2118.847659054386 488.6402640653377 2112.5580763017833 498.074638194243L2112.5580763017833 498.074638194243Q2105.6133286791164 506.23144082652567 2105.6133286791164 522.6105625780974L2105.6133286791164 522.6105625780974Q2105.6133286791164 538.9569260861658 2112.5580763017833 547.44131115348L2112.5580763017833 547.44131115348Q2118.847659054386 556.5481028473538 2129.6906376539264 556.5481028473538Q2140.5336162534677 556.5481028473538 2147.281814415115 547.7688935885114Q2154.0627708202655 538.9569260861658 2154.0627708202655 522.6105625780974L2154.0627708202655 522.6105625780974Q2154.0627708202655 506.23144082652567 2147.4456056326308 498.074638194243ZM2160.024771137838 552.4860806529641L2160.024771137838 552.4860806529641Q2148.7231771292527 566.3100594112905 2129.9854618454547 566.3100594112905Q2111.2805048051605 566.3100594112905 2100.109943770588 552.7809048444924Q2088.9721409795193 539.2517502776941 2088.9721409795193 522.7415955521099Q2088.9721409795193 506.23144082652567 2099.651328361544 492.73504450323065L2099.651328361544 492.73504450323065Q2110.985680613632 479.20588993643247 2129.854428871443 479.20588993643247L2129.854428871443 479.20588993643247Q2148.7231771292527 479.20588993643247 2159.8609799203214 492.57125328571493Q2171.031540954894 505.9366166349974 2171.031540954894 523.0691779871413Q2171.031540954894 540.2017393392853 2160.024771137838 552.4860806529641ZM2211.9138288468166 564.7376637231396L2192.095091527415 564.7376637231396Q2193.9950696505975 553.4033114710521 2193.9950696505975 541.7741350274362L2193.9950696505975 541.7741350274362L2193.9950696505975 505.9366166349974Q2193.9950696505975 494.6022643829098 2192.095091527415 482.9730879392939L2192.095091527415 482.9730879392939L2211.9138288468166 479.20588993643247Q2210.963839785226 482.3506813127342 2210.3414331586655 489.2626706918974L2210.3414331586655 489.2626706918974Q2218.5309940344514 479.20588993643247 2230.7825771046273 479.20588993643247L2230.7825771046273 479.20588993643247Q2237.6945664837904 479.20588993643247 2243.984149236394 482.3506813127342L2243.984149236394 482.3506813127342L2243.984149236394 499.6470338823939L2243.3617426098344 499.6470338823939Q2237.072159857231 488.6402640653377 2227.8015769458407 488.6402640653377Q2218.5309940344514 488.6402640653377 2212.8638179084073 498.36946238577127L2212.8638179084073 498.36946238577127Q2209.391444097075 503.08664945022394 2209.391444097075 514.748584137343L2209.391444097075 514.748584137343L2209.391444097075 541.7741350274362Q2209.391444097075 554.0584763411149 2211.9138288468166 564.7376637231396L2211.9138288468166 564.7376637231396ZM2258.7908752998146 482.9730879392939L2258.7908752998146 482.9730879392939Q2260.3632709879657 482.6455055042625 2263.180479929236 481.8593076601871Q2265.997688870506 481.07310981611164 2269.7976451168706 480.61449440706764Q2273.5648431197324 480.1558789980236 2278.576854375713 479.20588993643247L2278.576854375713 479.20588993643247Q2276.087227869474 489.59025312692887 2276.087227869474 502.1694186321359L2276.087227869474 502.1694186321359L2276.087227869474 530.4725410188516Q2276.087227869474 541.7741350274362 2279.5268434373047 547.1137287184486L2279.5268434373047 547.1137287184486Q2285.52160199838 556.5481028473538 2297.773185068555 556.5481028473538L2297.773185068555 556.5481028473538Q2310.024768138731 556.5481028473538 2316.019526699806 547.1137287184486L2316.019526699806 547.1137287184486Q2319.459142267636 541.7741350274362 2319.459142267636 530.4725410188516L2319.459142267636 530.4725410188516L2319.459142267636 505.9366166349974Q2319.459142267636 494.6022643829098 2317.264339952925 482.9730879392939L2317.264339952925 482.9730879392939L2337.0830772723275 479.20588993643247Q2334.888274957617 489.59025312692887 2334.888274957617 502.1694186321359L2334.888274957617 502.1694186321359L2334.888274957617 554.3533005326433Q2334.888274957617 572.599642163894 2325.453900828711 583.9339944159817L2325.453900828711 583.9339944159817Q2313.4971419500644 597.7579731743081 2296.0369981628883 597.7579731743081Q2278.576854375713 597.7579731743081 2267.275260367129 589.2735881069939L2267.275260367129 589.2735881069939L2267.275260367129 569.4548507875922L2267.8976669936883 569.4548507875922Q2271.0424583699905 577.3168292283467 2274.8096563728523 580.4616206046485L2274.8096563728523 580.4616206046485Q2283.2940414401655 587.9960166103715 2294.955976127285 587.9960166103715Q2306.5851525709004 587.9960166103715 2312.5471528884727 579.5116315430573L2312.5471528884727 579.5116315430573Q2319.459142267636 570.6996640407117 2319.459142267636 555.3032895942343L2319.459142267636 555.3032895942343Q2310.6799330087933 566.3100594112905 2293.678404630662 566.3100594112905Q2276.7096344960337 566.3100594112905 2267.8976669936883 554.0584763411149L2267.8976669936883 554.0584763411149Q2260.658095179494 543.9689373421468 2260.658095179494 530.4725410188516L2260.658095179494 530.4725410188516L2260.658095179494 505.9366166349974Q2260.658095179494 494.6022643829098 2258.7908752998146 482.9730879392939Z " fill="#8aaae5" transform="matrix(0.37439834383566395,0,0,0.37439834383566395,0,104.28030741859824)"/></g></svg>